REM DIRINDEX 1\2\4\18,1\2\4\19,1\2\5\20,1\2\5\21,1\2\6\22,1\2\7\23,1\2\8\24,1\2\8\25,1\2\9\26,1\2\10\27,1\3\11\28,1\3\11\29,1\3\11\30,1\3\11\31,1\3\12\32,1\3\12\33,1\3\12\34,1\3\12\35,1\3\13\36,1\3\13\37,1\3\14\38,1\3\14\39,1\3\15\40,1\3\15\41,1\3\15\42,1\3\16\43,1\3\16\44,1\3\17\45,1\3\17\46
REM DIRNAME folder01,folder02,folder03,folder04,folder05,folder06,folder07,folder08,folder09,folder10,folder11,folder12,folder13,folder14,folder15,folder16,folder17,folder18,folder19,folder20,folder21,folder22,folder23,folder24,folder25,folder26,folder27,folder28,folder29,folder30,folder31,folder32,folder33,folder34,folder35,folder36,folder37,folder38,folder39,folder40,folder41,folder42,folder43,folder44,folder45,folder46
TITLE ""
FILE "10.mp3" MP3
  TRACK 01 AUDIO
    TITLE "0:"
    INDEX 01 00:00:00
  TRACK 02 AUDIO
    TITLE "37:cjc024_6060"
    INDEX 01 00:00:13
  TRACK 03 AUDIO
    TITLE "0:"
    INDEX 01 00:01:38
  TRACK 04 AUDIO
    TITLE "36:cjc024_6061"
    INDEX 01 00:01:66
  TRACK 05 AUDIO
    TITLE "0:"
    INDEX 01 00:03:35
  TRACK 06 AUDIO
    TITLE "37:cjc024_6062"
    INDEX 01 00:04:23
  TRACK 07 AUDIO
    TITLE "0:"
    INDEX 01 00:05:28
  TRACK 08 AUDIO
    TITLE "36:cjc024_6063"
    INDEX 01 00:05:52
  TRACK 09 AUDIO
    TITLE "0:"
    INDEX 01 00:07:31
  TRACK 10 AUDIO
    TITLE "37:cjc024_6064"
    INDEX 01 00:08:15
  TRACK 11 AUDIO
    TITLE "0:"
    INDEX 01 00:09:49
  TRACK 12 AUDIO
    TITLE "36:cjc024_6065"
    INDEX 01 00:10:00
  TRACK 13 AUDIO
    TITLE "0:"
    INDEX 01 00:11:58
  TRACK 14 AUDIO
    TITLE "37:cjc024_6066"
    INDEX 01 00:12:42
  TRACK 15 AUDIO
    TITLE "0:"
    INDEX 01 00:13:51
  TRACK 16 AUDIO
    TITLE "36:cjc024_6067"
    INDEX 01 00:14:02
  TRACK 17 AUDIO
    TITLE "0:"
    INDEX 01 00:16:20
  TRACK 18 AUDIO
    TITLE "37:cjc024_6068"
    INDEX 01 00:17:10
  TRACK 19 AUDIO
    TITLE "0:"
    INDEX 01 00:18:19
  TRACK 20 AUDIO
    TITLE "36:cjc024_6069"
    INDEX 01 00:18:44
  TRACK 21 AUDIO
    TITLE "0:"
    INDEX 01 00:20:32
  TRACK 22 AUDIO
    TITLE "37:cjc024_6070"
    INDEX 01 00:21:17
  TRACK 23 AUDIO
    TITLE "0:"
    INDEX 01 00:22:29
  TRACK 24 AUDIO
    TITLE "36:cjc024_6071"
    INDEX 01 00:22:52
  TRACK 25 AUDIO
    TITLE "0:"
    INDEX 01 00:24:65
  TRACK 26 AUDIO
    TITLE "37:cjc024_6072"
    INDEX 01 00:25:56
  TRACK 27 AUDIO
    TITLE "0:"
    INDEX 01 00:26:62
  TRACK 28 AUDIO
    TITLE "36:cjc024_6073"
    INDEX 01 00:27:12
  TRACK 29 AUDIO
    TITLE "0:"
    INDEX 01 00:28:68
  TRACK 30 AUDIO
    TITLE "37:cjc024_6074"
    INDEX 01 00:29:56
  TRACK 31 AUDIO
    TITLE "0:"
    INDEX 01 00:30:73
  TRACK 32 AUDIO
    TITLE "36:cjc024_6075"
    INDEX 01 00:31:31
  TRACK 33 AUDIO
    TITLE "0:"
    INDEX 01 00:33:09
  TRACK 34 AUDIO
    TITLE "37:cjc024_6076"
    INDEX 01 00:34:00
  TRACK 35 AUDIO
    TITLE "0:"
    INDEX 01 00:35:10
  TRACK 36 AUDIO
    TITLE "36:cjc024_6077"
    INDEX 01 00:35:39
  TRACK 37 AUDIO
    TITLE "0:"
    INDEX 01 00:37:36
  TRACK 38 AUDIO
    TITLE "37:cjc024_6078"
    INDEX 01 00:38:30
  TRACK 39 AUDIO
    TITLE "0:"
    INDEX 01 00:39:33
  TRACK 40 AUDIO
    TITLE "36:cjc024_6079"
    INDEX 01 00:39:60
  TRACK 41 AUDIO
    TITLE "0:"
    INDEX 01 00:41:57
  TRACK 42 AUDIO
    TITLE "37:cjc024_6080"
    INDEX 01 00:42:45
  TRACK 43 AUDIO
    TITLE "0:"
    INDEX 01 00:43:62
  TRACK 44 AUDIO
    TITLE "36:cjc024_6081"
    INDEX 01 00:44:14
  TRACK 45 AUDIO
    TITLE "0:"
    INDEX 01 00:46:02
  TRACK 46 AUDIO
    TITLE "37:cjc024_6082"
    INDEX 01 00:46:66
  TRACK 47 AUDIO
    TITLE "0:"
    INDEX 01 00:48:02
  TRACK 48 AUDIO
    TITLE "36:cjc024_6083"
    INDEX 01 00:48:28
  TRACK 49 AUDIO
    TITLE "0:"
    INDEX 01 00:50:09
  TRACK 50 AUDIO
    TITLE "37:cjc024_6084"
    INDEX 01 00:50:68
  TRACK 51 AUDIO
    TITLE "0:"
    INDEX 01 00:52:12
  TRACK 52 AUDIO
    TITLE "36:cjc024_6085"
    INDEX 01 00:52:43
  TRACK 53 AUDIO
    TITLE "0:"
    INDEX 01 00:54:60
  TRACK 54 AUDIO
    TITLE "37:cjc024_6086"
    INDEX 01 00:55:48
  TRACK 55 AUDIO
    TITLE "0:"
    INDEX 01 00:56:69
  TRACK 56 AUDIO
    TITLE "36:cjc024_6087"
    INDEX 01 00:57:23
  TRACK 57 AUDIO
    TITLE "0:"
    INDEX 01 00:59:20
  TRACK 58 AUDIO
    TITLE "37:cjc024_6088"
    INDEX 01 01:00:06
  TRACK 59 AUDIO
    TITLE "0:"
    INDEX 01 01:01:19
  TRACK 60 AUDIO
    TITLE "36:cjc024_6089"
    INDEX 01 01:01:42
  TRACK 61 AUDIO
    TITLE "0:"
    INDEX 01 01:03:45
  TRACK 62 AUDIO
    TITLE "37:cjc024_6090"
    INDEX 01 01:04:33
  TRACK 63 AUDIO
    TITLE "0:"
    INDEX 01 01:05:68
  TRACK 64 AUDIO
    TITLE "36:cjc024_6091"
    INDEX 01 01:06:18
  TRACK 65 AUDIO
    TITLE "0:"
    INDEX 01 01:07:15
  TRACK 66 AUDIO
    TITLE "37:cjc024_6092"
    INDEX 01 01:08:03
  TRACK 67 AUDIO
    TITLE "0:"
    INDEX 01 01:09:30
  TRACK 68 AUDIO
    TITLE "36:cjc024_6093"
    INDEX 01 01:09:56
  TRACK 69 AUDIO
    TITLE "0:"
    INDEX 01 01:10:67
  TRACK 70 AUDIO
    TITLE "37:cjc024_6094"
    INDEX 01 01:11:56
  TRACK 71 AUDIO
    TITLE "0:"
    INDEX 01 01:12:56
  TRACK 72 AUDIO
    TITLE "36:cjc024_6095"
    INDEX 01 01:13:08
  TRACK 73 AUDIO
    TITLE "0:"
    INDEX 01 01:14:17
  TRACK 74 AUDIO
    TITLE "37:cjc024_6096"
    INDEX 01 01:15:05
  TRACK 75 AUDIO
    TITLE "0:"
    INDEX 01 01:16:44
  TRACK 76 AUDIO
    TITLE "36:cjc024_6097"
    INDEX 01 01:16:67
  TRACK 77 AUDIO
    TITLE "0:"
    INDEX 01 01:18:02
  TRACK 78 AUDIO
    TITLE "37:cjc024_6098"
    INDEX 01 01:18:68
  TRACK 79 AUDIO
    TITLE "0:"
    INDEX 01 01:20:02
  TRACK 80 AUDIO
    TITLE "36:cjc024_6099"
    INDEX 01 01:20:28
  TRACK 81 AUDIO
    TITLE "0:"
    INDEX 01 01:21:53
  TRACK 82 AUDIO
    TITLE "37:cjc024_6100"
    INDEX 01 01:22:37
  TRACK 83 AUDIO
    TITLE "0:"
    INDEX 01 01:23:65
  TRACK 84 AUDIO
    TITLE "36:cjc024_6101"
    INDEX 01 01:24:18
  TRACK 85 AUDIO
    TITLE "0:"
    INDEX 01 01:25:57
  TRACK 86 AUDIO
    TITLE "37:cjc024_6102"
    INDEX 01 01:26:44
  TRACK 87 AUDIO
    TITLE "0:"
    INDEX 01 01:27:50
  TRACK 88 AUDIO
    TITLE "36:cjc024_6103"
    INDEX 01 01:28:00
  TRACK 89 AUDIO
    TITLE "0:"
    INDEX 01 01:29:11
  TRACK 90 AUDIO
    TITLE "37:cjc024_6104"
    INDEX 01 01:29:74
  TRACK 91 AUDIO
    TITLE "0:"
    INDEX 01 01:31:00
  TRACK 92 AUDIO
    TITLE "36:cjc024_6105"
    INDEX 01 01:31:28
  TRACK 93 AUDIO
    TITLE "0:"
    INDEX 01 01:32:41
  TRACK 94 AUDIO
    TITLE "37:cjc024_6106"
    INDEX 01 01:33:29
  TRACK 95 AUDIO
    TITLE "0:"
    INDEX 01 01:34:57
  TRACK 96 AUDIO
    TITLE "36:cjc024_6107"
    INDEX 01 01:35:08
  TRACK 97 AUDIO
    TITLE "0:"
    INDEX 01 01:36:31
  TRACK 98 AUDIO
    TITLE "37:cjc024_6108"
    INDEX 01 01:37:22
  TRACK 99 AUDIO
    TITLE "0:"
    INDEX 01 01:38:22
  TRACK 100 AUDIO
    TITLE "36:cjc024_6109"
    INDEX 01 01:38:55
  TRACK 101 AUDIO
    TITLE "0:"
    INDEX 01 01:40:11
  TRACK 102 AUDIO
    TITLE "37:cjc024_6110"
    INDEX 01 01:40:74
  TRACK 103 AUDIO
    TITLE "0:"
    INDEX 01 01:41:71
  TRACK 104 AUDIO
    TITLE "36:cjc024_6111"
    INDEX 01 01:42:24
  TRACK 105 AUDIO
    TITLE "0:"
    INDEX 01 01:43:29
  TRACK 106 AUDIO
    TITLE "37:cjc024_6112"
    INDEX 01 01:44:15
  TRACK 107 AUDIO
    TITLE "0:"
    INDEX 01 01:45:14
  TRACK 108 AUDIO
    TITLE "36:cjc024_6113"
    INDEX 01 01:45:44
  TRACK 109 AUDIO
    TITLE "0:"
    INDEX 01 01:46:53
  TRACK 110 AUDIO
    TITLE "37:cjc024_6114"
    INDEX 01 01:47:39
  TRACK 111 AUDIO
    TITLE "0:"
    INDEX 01 01:49:10
  TRACK 112 AUDIO
    TITLE "36:cjc024_6115"
    INDEX 01 01:49:33
  TRACK 113 AUDIO
    TITLE "0:"
    INDEX 01 01:50:43
  TRACK 114 AUDIO
    TITLE "37:cjc024_6116"
    INDEX 01 01:51:30
  TRACK 115 AUDIO
    TITLE "0:"
    INDEX 01 01:52:28
  TRACK 116 AUDIO
    TITLE "36:cjc024_6117"
    INDEX 01 01:52:55
  TRACK 117 AUDIO
    TITLE "0:"
    INDEX 01 01:53:70
  TRACK 118 AUDIO
    TITLE "37:cjc024_6118"
    INDEX 01 01:54:64
  TRACK 119 AUDIO
    TITLE "0:"
    INDEX 01 01:56:36
  TRACK 120 AUDIO
    TITLE "36:cjc024_6119"
    INDEX 01 01:56:59
  TRACK 121 AUDIO
    TITLE "0:"
    INDEX 01 01:58:13
  TRACK 122 AUDIO
    TITLE "37:cjc024_6120"
    INDEX 01 01:59:03
  TRACK 123 AUDIO
    TITLE "0:"
    INDEX 01 02:00:37
  TRACK 124 AUDIO
    TITLE "36:cjc024_6121"
    INDEX 01 02:00:61
  TRACK 125 AUDIO
    TITLE "0:"
    INDEX 01 02:02:20
  TRACK 126 AUDIO
    TITLE "37:cjc024_6122"
    INDEX 01 02:03:08
  TRACK 127 AUDIO
    TITLE "0:"
    INDEX 01 02:04:47
  TRACK 128 AUDIO
    TITLE "36:cjc024_6123"
    INDEX 01 02:04:72
  TRACK 129 AUDIO
    TITLE "0:"
    INDEX 01 02:05:74
  TRACK 130 AUDIO
    TITLE "37:cjc024_6124"
    INDEX 01 02:06:59
  TRACK 131 AUDIO
    TITLE "0:"
    INDEX 01 02:08:23
  TRACK 132 AUDIO
    TITLE "36:cjc024_6125"
    INDEX 01 02:08:52
  TRACK 133 AUDIO
    TITLE "0:"
    INDEX 01 02:09:58
  TRACK 134 AUDIO
    TITLE "37:cjc024_6126"
    INDEX 01 02:10:45
  TRACK 135 AUDIO
    TITLE "0:"
    INDEX 01 02:11:72
  TRACK 136 AUDIO
    TITLE "36:cjc024_6127"
    INDEX 01 02:12:23
  TRACK 137 AUDIO
    TITLE "0:"
    INDEX 01 02:13:71
  TRACK 138 AUDIO
    TITLE "37:cjc024_6128"
    INDEX 01 02:14:61
  TRACK 139 AUDIO
    TITLE "0:"
    INDEX 01 02:16:09
  TRACK 140 AUDIO
    TITLE "36:cjc024_6129"
    INDEX 01 02:16:34
  TRACK 141 AUDIO
    TITLE "0:"
    INDEX 01 02:17:55
  TRACK 142 AUDIO
    TITLE "37:cjc024_6130"
    INDEX 01 02:18:43
  TRACK 143 AUDIO
    TITLE "0:"
    INDEX 01 02:20:18
  TRACK 144 AUDIO
    TITLE "36:cjc024_6131"
    INDEX 01 02:20:42
  TRACK 145 AUDIO
    TITLE "0:"
    INDEX 01 02:21:45
  TRACK 146 AUDIO
    TITLE "37:cjc024_6132"
    INDEX 01 02:22:33
  TRACK 147 AUDIO
    TITLE "0:"
    INDEX 01 02:23:74
  TRACK 148 AUDIO
    TITLE "36:cjc024_6133"
    INDEX 01 02:24:22
  TRACK 149 AUDIO
    TITLE "0:"
    INDEX 01 02:25:67
  TRACK 150 AUDIO
    TITLE "37:cjc024_6134"
    INDEX 01 02:26:52
  TRACK 151 AUDIO
    TITLE "0:"
    INDEX 01 02:28:20
  TRACK 152 AUDIO
    TITLE "36:cjc024_6135"
    INDEX 01 02:28:45
  TRACK 153 AUDIO
    TITLE "0:"
    INDEX 01 02:29:70
  TRACK 154 AUDIO
    TITLE "37:cjc024_6136"
    INDEX 01 02:30:60
  TRACK 155 AUDIO
    TITLE "0:"
    INDEX 01 02:32:29
  TRACK 156 AUDIO
    TITLE "36:cjc024_6137"
    INDEX 01 02:32:55
  TRACK 157 AUDIO
    TITLE "0:"
    INDEX 01 02:33:64
  TRACK 158 AUDIO
    TITLE "37:cjc024_6138"
    INDEX 01 02:34:54
  TRACK 159 AUDIO
    TITLE "0:"
    INDEX 01 02:35:63
  TRACK 160 AUDIO
    TITLE "36:cjc024_6139"
    INDEX 01 02:36:15
  TRACK 161 AUDIO
    TITLE "0:"
    INDEX 01 02:37:40
  TRACK 162 AUDIO
    TITLE "37:cjc024_6140"
    INDEX 01 02:38:34
  TRACK 163 AUDIO
    TITLE "0:"
    INDEX 01 02:39:43
  TRACK 164 AUDIO
    TITLE "36:cjc024_6141"
    INDEX 01 02:39:69
  TRACK 165 AUDIO
    TITLE "0:"
    INDEX 01 02:40:70
  TRACK 166 AUDIO
    TITLE "37:cjc024_6142"
    INDEX 01 02:41:66
  TRACK 167 AUDIO
    TITLE "0:"
    INDEX 01 02:43:21
  TRACK 168 AUDIO
    TITLE "36:cjc024_6143"
    INDEX 01 02:43:47
  TRACK 169 AUDIO
    TITLE "0:"
    INDEX 01 02:44:68
  TRACK 170 AUDIO
    TITLE "37:cjc024_6144"
    INDEX 01 02:45:67
  TRACK 171 AUDIO
    TITLE "0:"
    INDEX 01 02:47:05
  TRACK 172 AUDIO
    TITLE "36:cjc024_6145"
    INDEX 01 02:47:33
  TRACK 173 AUDIO
    TITLE "0:"
    INDEX 01 02:49:34
  TRACK 174 AUDIO
    TITLE "37:cjc024_6146"
    INDEX 01 02:50:19
  TRACK 175 AUDIO
    TITLE "0:"
    INDEX 01 02:51:25
  TRACK 176 AUDIO
    TITLE "36:cjc024_6147"
    INDEX 01 02:51:50
  TRACK 177 AUDIO
    TITLE "0:"
    INDEX 01 02:52:60
  TRACK 178 AUDIO
    TITLE "37:cjc024_6148"
    INDEX 01 02:53:47
  TRACK 179 AUDIO
    TITLE "0:"
    INDEX 01 02:55:27
  TRACK 180 AUDIO
    TITLE "36:cjc024_6149"
    INDEX 01 02:55:48
  TRACK 181 AUDIO
    TITLE "0:"
    INDEX 01 02:56:67
  TRACK 182 AUDIO
    TITLE "37:cjc024_6150"
    INDEX 01 02:57:51
  TRACK 183 AUDIO
    TITLE "0:"
    INDEX 01 02:59:01
  TRACK 184 AUDIO
    TITLE "36:cjc024_6151"
    INDEX 01 02:59:28
  TRACK 185 AUDIO
    TITLE "0:"
    INDEX 01 03:00:45
  TRACK 186 AUDIO
    TITLE "37:cjc024_6152"
    INDEX 01 03:01:33
  TRACK 187 AUDIO
    TITLE "0:"
    INDEX 01 03:02:60
  TRACK 188 AUDIO
    TITLE "36:cjc024_6153"
    INDEX 01 03:03:08
  TRACK 189 AUDIO
    TITLE "0:"
    INDEX 01 03:04:24
  TRACK 190 AUDIO
    TITLE "37:cjc024_6154"
    INDEX 01 03:05:11
  TRACK 191 AUDIO
    TITLE "0:"
    INDEX 01 03:06:26
  TRACK 192 AUDIO
    TITLE "36:cjc024_6155"
    INDEX 01 03:06:52
  TRACK 193 AUDIO
    TITLE "0:"
    INDEX 01 03:07:53
  TRACK 194 AUDIO
    TITLE "37:cjc024_6156"
    INDEX 01 03:08:41
  TRACK 195 AUDIO
    TITLE "0:"
    INDEX 01 03:09:56
  TRACK 196 AUDIO
    TITLE "36:cjc024_6157"
    INDEX 01 03:10:05
  TRACK 197 AUDIO
    TITLE "0:"
    INDEX 01 03:11:33
  TRACK 198 AUDIO
    TITLE "37:cjc024_6158"
    INDEX 01 03:12:23
  TRACK 199 AUDIO
    TITLE "0:"
    INDEX 01 03:13:48
  TRACK 200 AUDIO
    TITLE "36:cjc024_6159"
    INDEX 01 03:14:00
  TRACK 201 AUDIO
    TITLE "0:"
    INDEX 01 03:15:02
  TRACK 202 AUDIO
    TITLE "37:cjc024_6160"
    INDEX 01 03:15:64
  TRACK 203 AUDIO
    TITLE "0:"
    INDEX 01 03:17:10
  TRACK 204 AUDIO
    TITLE "36:cjc024_6161"
    INDEX 01 03:17:34
  TRACK 205 AUDIO
    TITLE "0:"
    INDEX 01 03:18:47
  TRACK 206 AUDIO
    TITLE "37:cjc024_6162"
    INDEX 01 03:19:37
  TRACK 207 AUDIO
    TITLE "0:"
    INDEX 01 03:20:64
  TRACK 208 AUDIO
    TITLE "36:cjc024_6163"
    INDEX 01 03:21:16
  TRACK 209 AUDIO
    TITLE "0:"
    INDEX 01 03:22:31
  TRACK 210 AUDIO
    TITLE "37:cjc024_6164"
    INDEX 01 03:23:21
  TRACK 211 AUDIO
    TITLE "0:"
    INDEX 01 03:24:46
  TRACK 212 AUDIO
    TITLE "36:cjc024_6165"
    INDEX 01 03:24:71
  TRACK 213 AUDIO
    TITLE "0:"
    INDEX 01 03:26:17
  TRACK 214 AUDIO
    TITLE "37:cjc024_6166"
    INDEX 01 03:27:11
  TRACK 215 AUDIO
    TITLE "0:"
    INDEX 01 03:28:71
  TRACK 216 AUDIO
    TITLE "36:cjc024_6167"
    INDEX 01 03:29:23
  TRACK 217 AUDIO
    TITLE "0:"
    INDEX 01 03:30:56
  TRACK 218 AUDIO
    TITLE "37:cjc024_6168"
    INDEX 01 03:31:42
  TRACK 219 AUDIO
    TITLE "0:"
    INDEX 01 03:33:06
  TRACK 220 AUDIO
    TITLE "36:cjc024_6169"
    INDEX 01 03:33:31
  TRACK 221 AUDIO
    TITLE "0:"
    INDEX 01 03:34:56
  TRACK 222 AUDIO
    TITLE "37:cjc024_6170"
    INDEX 01 03:35:46
  TRACK 223 AUDIO
    TITLE "0:"
    INDEX 01 03:36:72
  TRACK 224 AUDIO
    TITLE "36:cjc024_6171"
    INDEX 01 03:37:23
  TRACK 225 AUDIO
    TITLE "0:"
    INDEX 01 03:38:36
  TRACK 226 AUDIO
    TITLE "37:cjc024_6172"
    INDEX 01 03:39:34
  TRACK 227 AUDIO
    TITLE "0:"
    INDEX 01 03:40:51
  TRACK 228 AUDIO
    TITLE "36:cjc024_6173"
    INDEX 01 03:40:74
  TRACK 229 AUDIO
    TITLE "0:"
    INDEX 01 03:42:28
  TRACK 230 AUDIO
    TITLE "37:cjc024_6174"
    INDEX 01 03:43:16
  TRACK 231 AUDIO
    TITLE "0:"
    INDEX 01 03:44:56
  TRACK 232 AUDIO
    TITLE "36:cjc024_6175"
    INDEX 01 03:45:05
  TRACK 233 AUDIO
    TITLE "0:"
    INDEX 01 03:46:30
  TRACK 234 AUDIO
    TITLE "37:cjc024_6176"
    INDEX 01 03:47:15
  TRACK 235 AUDIO
    TITLE "0:"
    INDEX 01 03:49:42
  TRACK 236 AUDIO
    TITLE "36:cjc024_6177"
    INDEX 01 03:50:00
  TRACK 237 AUDIO
    TITLE "0:"
    INDEX 01 03:51:13
  TRACK 238 AUDIO
    TITLE "37:cjc024_6178"
    INDEX 01 03:52:01
  TRACK 239 AUDIO
    TITLE "0:"
    INDEX 01 03:53:28
  TRACK 240 AUDIO
    TITLE "36:cjc024_6179"
    INDEX 01 03:53:53
  TRACK 241 AUDIO
    TITLE "0:"
    INDEX 01 03:54:65
  TRACK 242 AUDIO
    TITLE "37:cjc024_6180"
    INDEX 01 03:55:50
  TRACK 243 AUDIO
    TITLE "0:"
    INDEX 01 03:56:71
  TRACK 244 AUDIO
    TITLE "36:cjc024_6181"
    INDEX 01 03:57:20
  TRACK 245 AUDIO
    TITLE "0:"
    INDEX 01 03:58:29
  TRACK 246 AUDIO
    TITLE "37:cjc024_6182"
    INDEX 01 03:59:17
  TRACK 247 AUDIO
    TITLE "0:"
    INDEX 01 04:00:38
  TRACK 248 AUDIO
    TITLE "36:cjc024_6183"
    INDEX 01 04:00:67
  TRACK 249 AUDIO
    TITLE "0:"
    INDEX 01 04:02:11
  TRACK 250 AUDIO
    TITLE "37:cjc024_6184"
    INDEX 01 04:03:01
  TRACK 251 AUDIO
    TITLE "0:"
    INDEX 01 04:04:26
  TRACK 252 AUDIO
    TITLE "36:cjc024_6185"
    INDEX 01 04:04:55
  TRACK 253 AUDIO
    TITLE "0:"
    INDEX 01 04:06:05
  TRACK 254 AUDIO
    TITLE "37:cjc024_6186"
    INDEX 01 04:06:68
  TRACK 255 AUDIO
    TITLE "0:"
    INDEX 01 04:08:06
  TRACK 256 AUDIO
    TITLE "36:cjc024_6187"
    INDEX 01 04:08:31
  TRACK 257 AUDIO
    TITLE "0:"
    INDEX 01 04:09:33
  TRACK 258 AUDIO
    TITLE "37:cjc024_6188"
    INDEX 01 04:10:20
  TRACK 259 AUDIO
    TITLE "0:"
    INDEX 01 04:11:30
  TRACK 260 AUDIO
    TITLE "36:cjc024_6189"
    INDEX 01 04:11:55
  TRACK 261 AUDIO
    TITLE "0:"
    INDEX 01 04:12:66
  TRACK 262 AUDIO
    TITLE "37:cjc024_6190"
    INDEX 01 04:13:56
  TRACK 263 AUDIO
    TITLE "0:"
    INDEX 01 04:15:10
  TRACK 264 AUDIO
    TITLE "36:cjc024_6191"
    INDEX 01 04:15:35
  TRACK 265 AUDIO
    TITLE "0:"
    INDEX 01 04:16:47
  TRACK 266 AUDIO
    TITLE "37:cjc024_6192"
    INDEX 01 04:17:36
  TRACK 267 AUDIO
    TITLE "0:"
    INDEX 01 04:18:47
  TRACK 268 AUDIO
    TITLE "36:cjc024_6193"
    INDEX 01 04:18:73
  TRACK 269 AUDIO
    TITLE "0:"
    INDEX 01 04:20:35
  TRACK 270 AUDIO
    TITLE "37:cjc024_6194"
    INDEX 01 04:21:18
  TRACK 271 AUDIO
    TITLE "0:"
    INDEX 01 04:22:06
  TRACK 272 AUDIO
    TITLE "36:cjc024_6195"
    INDEX 01 04:22:31
  TRACK 273 AUDIO
    TITLE "0:"
    INDEX 01 04:23:49
  TRACK 274 AUDIO
    TITLE "37:cjc024_6196"
    INDEX 01 04:24:34
  TRACK 275 AUDIO
    TITLE "0:"
    INDEX 01 04:26:19
  TRACK 276 AUDIO
    TITLE "36:cjc024_6197"
    INDEX 01 04:26:45
  TRACK 277 AUDIO
    TITLE "0:"
    INDEX 01 04:28:11
  TRACK 278 AUDIO
    TITLE "37:cjc024_6198"
    INDEX 01 04:28:69
  TRACK 279 AUDIO
    TITLE "0:"
    INDEX 01 04:30:02
  TRACK 280 AUDIO
    TITLE "36:cjc024_6199"
    INDEX 01 04:30:23
  TRACK 281 AUDIO
    TITLE "0:"
    INDEX 01 04:31:38
  TRACK 282 AUDIO
    TITLE "37:cjc024_6200"
    INDEX 01 04:32:26
  TRACK 283 AUDIO
    TITLE "0:"
    INDEX 01 04:33:45
  TRACK 284 AUDIO
    TITLE "36:cjc024_6201"
    INDEX 01 04:33:70
  TRACK 285 AUDIO
    TITLE "0:"
    INDEX 01 04:35:36
  TRACK 286 AUDIO
    TITLE "37:cjc024_6202"
    INDEX 01 04:36:22
  TRACK 287 AUDIO
    TITLE "0:"
    INDEX 01 04:37:43
  TRACK 288 AUDIO
    TITLE "36:cjc024_6203"
    INDEX 01 04:37:68
  TRACK 289 AUDIO
    TITLE "0:"
    INDEX 01 04:39:04
  TRACK 290 AUDIO
    TITLE "37:cjc024_6204"
    INDEX 01 04:39:67
  TRACK 291 AUDIO
    TITLE "0:"
    INDEX 01 04:41:25
  TRACK 292 AUDIO
    TITLE "36:cjc024_6205"
    INDEX 01 04:41:52
  TRACK 293 AUDIO
    TITLE "0:"
    INDEX 01 04:42:66
  TRACK 294 AUDIO
    TITLE "37:cjc024_6206"
    INDEX 01 04:43:53
  TRACK 295 AUDIO
    TITLE "0:"
    INDEX 01 04:45:11
  TRACK 296 AUDIO
    TITLE "36:cjc024_6207"
    INDEX 01 04:45:34
  TRACK 297 AUDIO
    TITLE "0:"
    INDEX 01 04:46:54
  TRACK 298 AUDIO
    TITLE "37:cjc024_6208"
    INDEX 01 04:47:43
  TRACK 299 AUDIO
    TITLE "0:"
    INDEX 01 04:48:66
  TRACK 300 AUDIO
    TITLE "36:cjc024_6209"
    INDEX 01 04:49:20
  TRACK 301 AUDIO
    TITLE "0:"
    INDEX 01 04:50:40
  TRACK 302 AUDIO
    TITLE "37:cjc024_6210"
    INDEX 01 04:51:27
  TRACK 303 AUDIO
    TITLE "0:"
    INDEX 01 04:52:58
  TRACK 304 AUDIO
    TITLE "36:cjc024_6211"
    INDEX 01 04:53:09
  TRACK 305 AUDIO
    TITLE "0:"
    INDEX 01 04:54:24
  TRACK 306 AUDIO
    TITLE "37:cjc024_6212"
    INDEX 01 04:55:11
  TRACK 307 AUDIO
    TITLE "0:"
    INDEX 01 04:56:11
  TRACK 308 AUDIO
    TITLE "36:cjc024_6213"
    INDEX 01 04:56:38
  TRACK 309 AUDIO
    TITLE "0:"
    INDEX 01 04:57:49
  TRACK 310 AUDIO
    TITLE "37:cjc024_6214"
    INDEX 01 04:58:41
  TRACK 311 AUDIO
    TITLE "0:"
    INDEX 01 04:59:70
  TRACK 312 AUDIO
    TITLE "36:cjc024_6215"
    INDEX 01 05:00:22
  TRACK 313 AUDIO
    TITLE "0:"
    INDEX 01 05:01:41
  TRACK 314 AUDIO
    TITLE "37:cjc024_6216"
    INDEX 01 05:02:31
  TRACK 315 AUDIO
    TITLE "0:"
    INDEX 01 05:03:60
  TRACK 316 AUDIO
    TITLE "36:cjc024_6217"
    INDEX 01 05:04:10
  TRACK 317 AUDIO
    TITLE "0:"
    INDEX 01 05:05:35
  TRACK 318 AUDIO
    TITLE "37:cjc024_6218"
    INDEX 01 05:06:23
  TRACK 319 AUDIO
    TITLE "0:"
    INDEX 01 05:07:46
  TRACK 320 AUDIO
    TITLE "36:cjc024_6219"
    INDEX 01 05:07:73
  TRACK 321 AUDIO
    TITLE "0:"
    INDEX 01 05:09:21
  TRACK 322 AUDIO
    TITLE "37:cjc024_6220"
    INDEX 01 05:10:09
  TRACK 323 AUDIO
    TITLE "0:"
    INDEX 01 05:11:18
  TRACK 324 AUDIO
    TITLE "36:cjc024_6221"
    INDEX 01 05:11:46
  TRACK 325 AUDIO
    TITLE "0:"
    INDEX 01 05:12:65
  TRACK 326 AUDIO
    TITLE "37:cjc024_6222"
    INDEX 01 05:13:50
  TRACK 327 AUDIO
    TITLE "0:"
    INDEX 01 05:14:66
  TRACK 328 AUDIO
    TITLE "36:cjc024_6223"
    INDEX 01 05:15:20
  TRACK 329 AUDIO
    TITLE "0:"
    INDEX 01 05:16:47
  TRACK 330 AUDIO
    TITLE "37:cjc024_6224"
    INDEX 01 05:17:33
  TRACK 331 AUDIO
    TITLE "0:"
    INDEX 01 05:18:57
  TRACK 332 AUDIO
    TITLE "36:cjc024_6225"
    INDEX 01 05:19:08
  TRACK 333 AUDIO
    TITLE "0:"
    INDEX 01 05:20:15
  TRACK 334 AUDIO
    TITLE "37:cjc024_6226"
    INDEX 01 05:21:05
  TRACK 335 AUDIO
    TITLE "0:"
    INDEX 01 05:22:38
  TRACK 336 AUDIO
    TITLE "36:cjc024_6227"
    INDEX 01 05:22:61
  TRACK 337 AUDIO
    TITLE "0:"
    INDEX 01 05:24:01
  TRACK 338 AUDIO
    TITLE "37:cjc024_6228"
    INDEX 01 05:24:60
  TRACK 339 AUDIO
    TITLE "0:"
    INDEX 01 05:25:71
  TRACK 340 AUDIO
    TITLE "36:cjc024_6229"
    INDEX 01 05:26:22
  TRACK 341 AUDIO
    TITLE "0:"
    INDEX 01 05:27:21
  TRACK 342 AUDIO
    TITLE "37:cjc024_6230"
    INDEX 01 05:28:09
  TRACK 343 AUDIO
    TITLE "0:"
    INDEX 01 05:29:30
  TRACK 344 AUDIO
    TITLE "36:cjc024_6231"
    INDEX 01 05:29:55
  TRACK 345 AUDIO
    TITLE "0:"
    INDEX 01 05:31:11
  TRACK 346 AUDIO
    TITLE "37:cjc024_6232"
    INDEX 01 05:32:01
  TRACK 347 AUDIO
    TITLE "0:"
    INDEX 01 05:33:12
  TRACK 348 AUDIO
    TITLE "36:cjc024_6233"
    INDEX 01 05:33:37
  TRACK 349 AUDIO
    TITLE "0:"
    INDEX 01 05:34:53
  TRACK 350 AUDIO
    TITLE "37:cjc024_6234"
    INDEX 01 05:35:38
  TRACK 351 AUDIO
    TITLE "0:"
    INDEX 01 05:36:59
  TRACK 352 AUDIO
    TITLE "36:cjc024_6235"
    INDEX 01 05:37:16
  TRACK 353 AUDIO
    TITLE "0:"
    INDEX 01 05:38:46
  TRACK 354 AUDIO
    TITLE "37:cjc024_6236"
    INDEX 01 05:39:36
  TRACK 355 AUDIO
    TITLE "0:"
    INDEX 01 05:40:39
  TRACK 356 AUDIO
    TITLE "36:cjc024_6237"
    INDEX 01 05:40:65
  TRACK 357 AUDIO
    TITLE "0:"
    INDEX 01 05:41:74
  TRACK 358 AUDIO
    TITLE "37:cjc024_6238"
    INDEX 01 05:42:64
  TRACK 359 AUDIO
    TITLE "0:"
    INDEX 01 05:44:04
  TRACK 360 AUDIO
    TITLE "36:cjc024_6239"
    INDEX 01 05:44:33
  TRACK 361 AUDIO
    TITLE "0:"
    INDEX 01 05:45:56
  TRACK 362 AUDIO
    TITLE "37:cjc024_6240"
    INDEX 01 05:46:46
  TRACK 363 AUDIO
    TITLE "0:"
    INDEX 01 05:47:71
  TRACK 364 AUDIO
    TITLE "36:cjc024_6241"
    INDEX 01 05:48:23
  TRACK 365 AUDIO
    TITLE "0:"
    INDEX 01 05:49:34
  TRACK 366 AUDIO
    TITLE "37:cjc024_6242"
    INDEX 01 05:50:22
  TRACK 367 AUDIO
    TITLE "0:"
    INDEX 01 05:51:49
  TRACK 368 AUDIO
    TITLE "36:cjc024_6243"
    INDEX 01 05:52:01
  TRACK 369 AUDIO
    TITLE "0:"
    INDEX 01 05:53:26
  TRACK 370 AUDIO
    TITLE "37:cjc024_6244"
    INDEX 01 05:54:16
  TRACK 371 AUDIO
    TITLE "0:"
    INDEX 01 05:55:70
  TRACK 372 AUDIO
    TITLE "36:cjc024_6245"
    INDEX 01 05:56:21
  TRACK 373 AUDIO
    TITLE "0:"
    INDEX 01 05:57:44
  TRACK 374 AUDIO
    TITLE "37:cjc024_6246"
    INDEX 01 05:58:33
  TRACK 375 AUDIO
    TITLE "0:"
    INDEX 01 05:59:62
  TRACK 376 AUDIO
    TITLE "36:cjc024_6247"
    INDEX 01 06:00:15
  TRACK 377 AUDIO
    TITLE "0:"
    INDEX 01 06:01:44
